{
    "asset" : {
        "generator" : "Khronos glTF Blender I/O v0.9.36",
        "version" : "2.0"
    },
    "scene" : 0,
    "scenes" : [
        {
            "name" : "Scene",
            "nodes" : [
                0
            ]
        }
    ],
    "nodes" : [
        {
            "mesh" : 0,
            "name" : "bunker"
        }
    ],
    "meshes" : [
        {
            "name" : "bunker",
            "primitives" : [
                {
                    "attributes" : {
                        "POSITION" : 0,
                        "NORMAL" : 1,
                        "TEXCOORD_0" : 2
                    },
                    "indices" : 3
                }
            ]
        }
    ],
    "accessors" : [
        {
            "bufferView" : 0,
            "componentType" : 5126,
            "count" : 790,
            "max" : [
                3,
                4,
                9
            ],
            "min" : [
                -3,
                -5,
                0
            ],
            "type" : "VEC3"
        },
        {
            "bufferView" : 1,
            "componentType" : 5126,
            "count" : 790,
            "type" : "VEC3"
        },
        {
            "bufferView" : 2,
            "componentType" : 5126,
            "count" : 790,
            "type" : "VEC2"
        },
        {
            "bufferView" : 3,
            "componentType" : 5123,
            "count" : 2244,
            "type" : "SCALAR"
        }
    ],
    "bufferViews" : [
        {
            "buffer" : 0,
            "byteLength" : 9480,
            "byteOffset" : 0
        },
        {
            "buffer" : 0,
            "byteLength" : 9480,
            "byteOffset" : 9480
        },
        {
            "buffer" : 0,
            "byteLength" : 6320,
            "byteOffset" : 18960
        },
        {
            "buffer" : 0,
            "byteLength" : 4488,
            "byteOffset" : 25280
        }
    ],
    "buffers" : [
        {
            "byteLength" : 29768,
            "uri" : "data:application/octet-stream;base64,"
        }
    ]
}
